<svg width="512" height="512" viewBox="0 0 512 512" xmlns="http://www.w3.org/2000/svg" fill="none">
  <defs>
    <linearGradient id="g2" x1="0" y1="0" x2="1" y2="1">
      <stop offset="0%" stop-color="#FFF6D1"/>
      <stop offset="50%" stop-color="#D4AF37"/>
      <stop offset="100%" stop-color="#8C6A00"/>
    </linearGradient>
  </defs>
  <path d="M320 88c-32 0-64 16-96 48 16 8 32 16 48 24 24-24 40-32 56-32 16 0 24 8 24 16 0 16-24 28-72 44-64 20-96 48-96 96 0 52 44 88 104 88 44 0 80-16 104-32l-32-40c-20 12-44 20-72 20-28 0-48-12-48-32 0-24 28-36 76-52 60-20 92-44 92-88 0-48-36-80-88-80Z" fill="url(#g2)"/>
</svg>
