<svg width="157" height="157" viewBox="0 0 157 157" fill="none" xmlns="http://www.w3.org/2000/svg">
<circle cx="78.0051" cy="78.0054" r="77.74" fill="black" stroke="white" stroke-width="0.530364"/>
<path d="M71.3635 26.0015L57.3288 50.0609H71.3635L75.3734 43.5448H81.6389L87.6537 54.572L85.6488 56.3264H54.0708L47.0534 68.1054H95.6735L101.187 78.1302L97.4278 82.892H87.6537L85.6488 80.1351H68.3561L66.1005 82.892H57.3288L51.5646 76.3759L45.8004 69.8598L35.0237 85.8994L43.0435 97.4279H61.464L62.9678 92.6661H89.9093L92.1649 97.4279H110.961L120.986 85.8994L110.961 68.1054L107.829 63.2184L100.31 50.0609L97.4278 45.0485L85.6488 26.0015H71.3635Z" fill="#C6FF00"/>
<path d="M43.2448 121.443L46.0639 108.629H52.0317L54.8508 121.443H51.5924L51.0615 118.697H47.0342L46.5033 121.443H43.2448ZM47.4186 116.482H50.6771L49.6153 111.063H48.4803L47.4186 116.482ZM55.9355 119.21V108.629H59.0109V118.66H63.0016V108.629H66.077V119.21L63.8437 121.443H58.1688L55.9355 119.21ZM70.917 115.365H75.1274V111.082H70.917V115.365ZM78.2028 110.862V115.493L76.72 116.976L78.9351 121.443H75.4935L73.8643 117.818H70.917V121.443H67.8416V108.629H75.9695L78.2028 110.862ZM79.8 119.21V110.862L82.0334 108.629H88.3673L90.6006 110.862V119.21L88.3673 121.443H82.0334L79.8 119.21ZM82.9853 111.301V118.77H87.4154V111.301H82.9853ZM95.3728 115.365H99.5832V111.082H95.3728V115.365ZM102.659 110.862V115.493L101.176 116.976L103.391 121.443H99.9493L98.32 117.818H95.3728V121.443H92.2973V108.629H100.425L102.659 110.862ZM103.633 121.443L106.453 108.629H112.42L115.239 121.443H111.981L111.45 118.697H107.423L106.892 121.443H103.633ZM107.807 116.482H111.066L110.004 111.063H108.869L107.807 116.482Z" fill="#C6FF00"/>
</svg>
