<svg width="133" height="61" viewBox="0 0 133 61" fill="none" xmlns="http://www.w3.org/2000/svg">
<rect x="53.7509" y="4.54449" width="1.67673" height="51.1404" fill="white"/>
<path d="M27.6918 9.99398H10.5752L3.44904 0.0733032C10.0628 0.236319 24.8274 0.0733074 30.9754 0.0733032C37.8533 0.0733006 43.6208 7.88496 44.529 12.4392V36.7519C42.3493 42.9558 37.8919 45.0191 35.9357 45.2753L30.9754 36.7519L34.0494 32.8395V16.8406L27.6918 9.99398Z" fill="white" stroke="white" stroke-width="0.139728"/>
<path d="M0.235413 3.28693V23.9666L27.8317 60.3657H42.7127L0.235413 3.28693Z" fill="white" stroke="white" stroke-width="0.139728"/>
<path d="M0.0720215 30.6074L0.305741 51.8447L9.8488 60.054L9.65121 42.1001L0.0720215 30.6074Z" fill="white" stroke="white" stroke-width="0.139728"/>
<path d="M65.3055 26.4868V16.2251H69.8947C70.6358 16.2251 71.2819 16.3534 71.833 16.61C72.3841 16.857 72.8117 17.2085 73.1157 17.6646C73.4198 18.1207 73.5718 18.6528 73.5718 19.2609C73.5718 19.8595 73.4198 20.3868 73.1157 20.8429C72.8117 21.2894 72.3841 21.641 71.833 21.8975C71.2819 22.1446 70.6358 22.2681 69.8947 22.2681H67.0443V20.6576H69.8377C70.3603 20.6576 70.7594 20.5388 71.0349 20.3013C71.3199 20.0542 71.4625 19.7122 71.4625 19.2751C71.4625 18.8286 71.3247 18.4913 71.0492 18.2632C70.7736 18.0257 70.3698 17.9069 69.8377 17.9069H67.5003V26.4868H65.3055ZM71.0919 26.4868L66.973 21.1564H69.2961L74.0564 26.4868H71.0919ZM74.455 26.4868V16.2251H76.6498V26.4868H74.455ZM75.4812 26.4868V24.805H82.0942V26.4868H75.4812ZM75.4812 22.0686V20.4153H81.5954V22.0686H75.4812ZM75.4812 17.9069V16.2251H81.9232V17.9069H75.4812ZM87.6331 26.6293C86.5214 26.6293 85.5665 26.4107 84.7684 25.9737C83.9703 25.5366 83.3527 24.9238 82.9156 24.1351C82.488 23.3465 82.2742 22.4249 82.2742 21.3702C82.2742 20.325 82.4928 19.4081 82.9298 18.6195C83.3669 17.8214 83.9703 17.199 84.7399 16.7525C85.519 16.3059 86.4216 16.0826 87.4478 16.0826C88.2934 16.0826 89.0488 16.2346 89.7139 16.5387C90.3885 16.8427 90.9301 17.2608 91.3387 17.7929C91.7567 18.3155 92.0038 18.9236 92.0798 19.6172H89.8849C89.7899 19.0566 89.5239 18.6195 89.0868 18.306C88.6592 17.9829 88.1224 17.8214 87.4763 17.8214C86.8777 17.8214 86.3551 17.9639 85.9086 18.249C85.462 18.5245 85.1152 18.9236 84.8681 19.4462C84.6211 19.9687 84.4976 20.5958 84.4976 21.3274C84.4976 22.0876 84.6211 22.7384 84.8681 23.28C85.1152 23.8121 85.4762 24.2206 85.9513 24.5057C86.4359 24.7812 87.0297 24.919 87.7328 24.919C88.3029 24.919 88.7875 24.8477 89.1866 24.7052C89.5856 24.5627 89.8897 24.3632 90.0987 24.1066L92.1795 24.9333C91.6285 25.4843 90.9871 25.9072 90.2555 26.2017C89.5334 26.4868 88.6592 26.6293 87.6331 26.6293ZM89.9847 24.9333V22.1113L90.4265 22.5531H87.7186V20.8714H92.1795V24.9333H89.9847ZM92.3112 26.4868L95.9882 16.2251H97.8695L94.4917 26.4868H92.3112ZM99.8363 26.4868L96.4728 16.2251H98.4396L102.117 26.4868H99.8363ZM94.2495 22.5104H100.007V24.2206H94.2495V22.5104ZM102.748 26.4868V16.2251H104.943V26.4868H102.748ZM103.775 26.4868V24.805H109.875V26.4868H103.775ZM110.727 26.4868V16.2251H112.922V26.4868H110.727ZM113.548 26.4868L117.225 16.2251H119.106L115.729 26.4868H113.548ZM121.073 26.4868L117.71 16.2251H119.677L123.354 26.4868H121.073ZM115.486 22.5104H121.244V24.2206H115.486V22.5104ZM65.3625 43.4868V33.2251H68.7831L71.6335 43.1162H70.3936L73.244 33.2251H76.6788V43.4868H74.5125V33.838H74.883L72.1038 43.4868H69.8377L67.087 33.9235H67.4433V43.4868H65.3625ZM78.5822 43.4868L82.2593 33.2251H84.1406L80.7628 43.4868H78.5822ZM86.1074 43.4868L82.7439 33.2251H84.7107L88.3878 43.4868H86.1074ZM80.5205 39.5104H86.2785V41.2206H80.5205V39.5104ZM90.0643 43.4868V33.2251H94.6535C95.3946 33.2251 96.0407 33.3534 96.5918 33.61C97.1429 33.857 97.5705 34.2085 97.8745 34.6646C98.1786 35.1207 98.3306 35.6528 98.3306 36.2609C98.3306 36.8595 98.1786 37.3868 97.8745 37.8429C97.5705 38.2894 97.1429 38.641 96.5918 38.8975C96.0407 39.1446 95.3946 39.2681 94.6535 39.2681H91.8031V37.6576H94.5965C95.1191 37.6576 95.5182 37.5388 95.7937 37.3013C96.0788 37.0542 96.2213 36.7122 96.2213 36.2751C96.2213 35.8286 96.0835 35.4913 95.808 35.2632C95.5324 35.0257 95.1286 34.9069 94.5965 34.9069H92.2592V43.4868H90.0643ZM95.8507 43.4868L91.7318 38.1564H94.0549L98.8152 43.4868H95.8507ZM100.497 43.4868V33.2251H102.691V43.4868H100.497ZM104.97 43.4868V33.2251H107.807L112.367 42.2896L111.669 42.4606V33.2251H113.807V43.4868H110.971L106.41 34.4223L107.108 34.2513V43.4868H104.97ZM116.083 43.4868V33.2251H118.278V43.4868H116.083ZM117.109 43.4868V41.805H123.722V43.4868H117.109ZM117.109 39.0686V37.4153H123.224V39.0686H117.109ZM117.109 34.9069V33.2251H123.551V34.9069H117.109Z" fill="white"/>
</svg>
